<?xml version="1.0" encoding="UTF-8" standalone="no"?>
<!DOCTYPE svg PUBLIC "-//W3C//DTD SVG 1.1//EN"
 "http://www.w3.org/Graphics/SVG/1.1/DTD/svg11.dtd">
<!-- Generated by graphviz version 2.40.1 (20161225.0304)
 -->
<!-- Title: controllers_diagram Pages: 1 -->
<svg width="466pt" height="392pt"
 viewBox="0.00 0.00 466.00 392.00" xmlns="http://www.w3.org/2000/svg" xmlns:xlink="http://www.w3.org/1999/xlink">
<g id="graph0" class="graph" transform="scale(1 1) rotate(0) translate(4 388)">
<title>controllers_diagram</title>
<polygon fill="transparent" stroke="transparent" points="-4,4 -4,-388 462,-388 462,4 -4,4"/>
<!-- _diagram_info -->
<g id="node1" class="node">
<title>_diagram_info</title>
<text text-anchor="start" x="212" y="-284.6" font-family="Times,serif" font-size="13.00" fill="#000000">Controllers diagram</text>
<text text-anchor="start" x="212" y="-270.6" font-family="Times,serif" font-size="13.00" fill="#000000">Date: Jun 05 2017 &#45; 16:33</text>
<text text-anchor="start" x="212" y="-256.6" font-family="Times,serif" font-size="13.00" fill="#000000">Migration version: 20170319132001</text>
<text text-anchor="start" x="212" y="-242.6" font-family="Times,serif" font-size="13.00" fill="#000000">Generated by RailRoady 1.5.2</text>
<text text-anchor="start" x="212" y="-228.6" font-family="Times,serif" font-size="13.00" fill="#000000">http://railroady.prestonlee.com</text>
</g>
<!-- ApplicationController -->
<g id="node2" class="node">
<title>ApplicationController</title>
<path fill="none" stroke="#000000" d="M12,-289.5C12,-289.5 160,-289.5 160,-289.5 166,-289.5 172,-295.5 172,-301.5 172,-301.5 172,-371.5 172,-371.5 172,-377.5 166,-383.5 160,-383.5 160,-383.5 12,-383.5 12,-383.5 6,-383.5 0,-377.5 0,-371.5 0,-371.5 0,-301.5 0,-301.5 0,-295.5 6,-289.5 12,-289.5"/>
<text text-anchor="middle" x="86" y="-368.3" font-family="Times,serif" font-size="14.00" fill="#000000">ApplicationController</text>
<polyline fill="none" stroke="#000000" points="0,-360.5 172,-360.5 "/>
<polyline fill="none" stroke="#000000" points="0,-336.5 172,-336.5 "/>
<polyline fill="none" stroke="#000000" points="0,-312.5 172,-312.5 "/>
<text text-anchor="start" x="8" y="-297.3" font-family="Times,serif" font-size="14.00" fill="#000000">_layout</text>
</g>
<!-- HomeController -->
<g id="node3" class="node">
<title>HomeController</title>
<path fill="none" stroke="#000000" d="M301,-.5C301,-.5 410,-.5 410,-.5 416,-.5 422,-6.5 422,-12.5 422,-12.5 422,-81.5 422,-81.5 422,-87.5 416,-93.5 410,-93.5 410,-93.5 301,-93.5 301,-93.5 295,-93.5 289,-87.5 289,-81.5 289,-81.5 289,-12.5 289,-12.5 289,-6.5 295,-.5 301,-.5"/>
<text text-anchor="middle" x="355.5" y="-78.3" font-family="Times,serif" font-size="14.00" fill="#000000">HomeController</text>
<polyline fill="none" stroke="#000000" points="289,-70.5 422,-70.5 "/>
<text text-anchor="start" x="297" y="-55.3" font-family="Times,serif" font-size="14.00" fill="#000000">index</text>
<polyline fill="none" stroke="#000000" points="289,-47.5 422,-47.5 "/>
<polyline fill="none" stroke="#000000" points="289,-23.5 422,-23.5 "/>
<text text-anchor="start" x="297" y="-8.3" font-family="Times,serif" font-size="14.00" fill="#000000">_layout</text>
</g>
<!-- Api::V1::CertificatesController -->
<g id="node4" class="node">
<title>Api::V1::CertificatesController</title>
<path fill="none" stroke="#000000" d="M29,-85.5C29,-85.5 241,-85.5 241,-85.5 247,-85.5 253,-91.5 253,-97.5 253,-97.5 253,-181.5 253,-181.5 253,-187.5 247,-193.5 241,-193.5 241,-193.5 29,-193.5 29,-193.5 23,-193.5 17,-187.5 17,-181.5 17,-181.5 17,-97.5 17,-97.5 17,-91.5 23,-85.5 29,-85.5"/>
<text text-anchor="middle" x="135" y="-178.3" font-family="Times,serif" font-size="14.00" fill="#000000">Api::V1::CertificatesController</text>
<polyline fill="none" stroke="#000000" points="17,-170.5 253,-170.5 "/>
<text text-anchor="start" x="25" y="-155.3" font-family="Times,serif" font-size="14.00" fill="#000000">create</text>
<text text-anchor="start" x="25" y="-140.3" font-family="Times,serif" font-size="14.00" fill="#000000">revoke</text>
<polyline fill="none" stroke="#000000" points="17,-132.5 253,-132.5 "/>
<polyline fill="none" stroke="#000000" points="17,-108.5 253,-108.5 "/>
<text text-anchor="start" x="25" y="-93.3" font-family="Times,serif" font-size="14.00" fill="#000000">_layout</text>
</g>
</g>
</svg>
