<?xml version="1.0" encoding="UTF-8" standalone="no"?>
<!DOCTYPE svg PUBLIC "-//W3C//DTD SVG 1.1//EN"
 "http://www.w3.org/Graphics/SVG/1.1/DTD/svg11.dtd">
<!-- Generated by graphviz version 2.40.1 (20161225.0304)
 -->
<!-- Title: models_diagram Pages: 1 -->
<svg width="808pt" height="160pt"
 viewBox="0.00 0.00 807.84 160.00" xmlns="http://www.w3.org/2000/svg" xmlns:xlink="http://www.w3.org/1999/xlink">
<g id="graph0" class="graph" transform="scale(1 1) rotate(0) translate(4 156)">
<title>models_diagram</title>
<polygon fill="transparent" stroke="transparent" points="-4,4 -4,-156 803.8414,-156 803.8414,4 -4,4"/>
<!-- _diagram_info -->
<g id="node1" class="node">
<title>_diagram_info</title>
<text text-anchor="start" x="8" y="-100.6" font-family="Times,serif" font-size="13.00" fill="#000000">Models diagram</text>
<text text-anchor="start" x="8" y="-86.6" font-family="Times,serif" font-size="13.00" fill="#000000">Date: Jun 05 2017 &#45; 16:33</text>
<text text-anchor="start" x="8" y="-72.6" font-family="Times,serif" font-size="13.00" fill="#000000">Migration version: 20170319132001</text>
<text text-anchor="start" x="8" y="-58.6" font-family="Times,serif" font-size="13.00" fill="#000000">Generated by RailRoady 1.5.2</text>
<text text-anchor="start" x="8" y="-44.6" font-family="Times,serif" font-size="13.00" fill="#000000">http://railroady.prestonlee.com</text>
</g>
<!-- Certificate -->
<g id="node2" class="node">
<title>Certificate</title>
<path fill="none" stroke="#000000" d="M284,-.5C284,-.5 576,-.5 576,-.5 582,-.5 588,-6.5 588,-12.5 588,-12.5 588,-139.5 588,-139.5 588,-145.5 582,-151.5 576,-151.5 576,-151.5 284,-151.5 284,-151.5 278,-151.5 272,-145.5 272,-139.5 272,-139.5 272,-12.5 272,-12.5 272,-6.5 278,-.5 284,-.5"/>
<text text-anchor="middle" x="430" y="-136.3" font-family="Times,serif" font-size="14.00" fill="#000000">Certificate</text>
<polyline fill="none" stroke="#000000" points="272,-128.5 588,-128.5 "/>
<text text-anchor="start" x="280" y="-113.3" font-family="Times,serif" font-size="14.00" fill="#000000">id :integer</text>
<text text-anchor="start" x="280" y="-98.3" font-family="Times,serif" font-size="14.00" fill="#000000">pem :text</text>
<text text-anchor="start" x="280" y="-83.3" font-family="Times,serif" font-size="14.00" fill="#000000">serial :character varying</text>
<text text-anchor="start" x="280" y="-68.3" font-family="Times,serif" font-size="14.00" fill="#000000">status :integer</text>
<text text-anchor="start" x="280" y="-53.3" font-family="Times,serif" font-size="14.00" fill="#000000">reason :integer</text>
<text text-anchor="start" x="280" y="-38.3" font-family="Times,serif" font-size="14.00" fill="#000000">revoked_at :timestamp without time zone</text>
<text text-anchor="start" x="280" y="-23.3" font-family="Times,serif" font-size="14.00" fill="#000000">created_at :timestamp without time zone</text>
<text text-anchor="start" x="280" y="-8.3" font-family="Times,serif" font-size="14.00" fill="#000000">updated_at :timestamp without time zone</text>
</g>
<!-- ApplicationRecord -->
<g id="node3" class="node">
<title>ApplicationRecord</title>
<ellipse fill="none" stroke="#000000" cx="703" cy="-76" rx="96.6831" ry="18"/>
<text text-anchor="middle" x="703" y="-72.3" font-family="Times,serif" font-size="14.00" fill="#000000">ApplicationRecord</text>
</g>
</g>
</svg>
